<!-- icon666.com - MILLIONS vector ICONS FREE --><svg id="tetris" enable-background="new 0 0 300 300" viewBox="0 0 300 300" xmlns="http://www.w3.org/2000/svg" xmlns:xlink="http://www.w3.org/1999/xlink"><linearGradient id="SVGID_1_" gradientUnits="userSpaceOnUse" x1="75.172" x2="256.829" y1="238.829" y2="57.171"><stop offset="0" stop-color="#107eff"></stop><stop offset="1" stop-color="#8f16ff"></stop></linearGradient><g><path d="m204.926 116.344c0-6.803-5.535-12.338-12.34-12.338-6.801 0-12.336 5.535-12.336 12.338 0 6.805 5.535 12.34 12.336 12.34 6.805 0 12.34-5.536 12.34-12.34zm-16.676 0c0-2.393 1.945-4.338 4.336-4.338 2.395 0 4.34 1.945 4.34 4.338s-1.945 4.34-4.34 4.34c-2.391 0-4.336-1.948-4.336-4.34zm23.266 36.484 2.828-2.828-2.828-2.828c-1.562-1.562-1.562-4.094 0-5.656s4.094-1.562 5.656 0l2.828 2.828 2.828-2.828c1.562-1.562 4.094-1.562 5.656 0s1.562 4.094 0 5.656l-2.828 2.828 2.828 2.828c1.562 1.562 1.562 4.094 0 5.656-.781.781-1.805 1.172-2.828 1.172s-2.047-.391-2.828-1.172l-2.828-2.828-2.828 2.828c-.781.781-1.805 1.172-2.828 1.172s-2.047-.391-2.828-1.172c-1.563-1.562-1.563-4.093 0-5.656zm-37.516 3.701c-2.501 0-4.53-2.028-4.53-4.529 0-2.502 2.028-4.53 4.53-4.53s4.53 2.028 4.53 4.53c0 2.501-2.029 4.529-4.53 4.529zm66 21.471h-72c-2.211 0-4 1.791-4 4v32h-28v-32c0-2.209-1.791-4-4-4h-32v-104c0-2.209-1.791-4-4-4h-36c-2.209 0-4 1.791-4 4v144c0 2.209 1.791 4 4 4h32v32c0 2.209 1.791 4 4 4h144c2.211 0 4-1.791 4-4v-36-36c0-2.209-1.789-4-4-4zm-4 36h-28v-28h28zm-108 0h-28v-28h28zm-64-64h28v28h-28zm0-72h28v28h-28zm0 108h28v28h-28zm36 36h28v28h-28zm36 0h28v28h-28zm36 0h28v28h-28zm64 28h-28v-28h28zm4-208h-108c-2.209 0-4 1.791-4 4v36 36c0 2.209 1.791 4 4 4h36c2.211 0 4-1.791 4-4v-32h68c2.211 0 4-1.791 4-4v-36c0-2.209-1.789-4-4-4zm-104 8h28v28h-28zm28 64h-28v-28h28zm8-64h28v28h-28z" fill="url(#SVGID_1_)"></path></g></svg>